<svg width="286" height="70" viewBox="0 0 286 70" fill="none" xmlns="http://www.w3.org/2000/svg">
<g filter="url(#filter0_d_8401_29293)">
<rect x="3" width="280" height="64" rx="16" fill="white"/>
</g>
<rect x="17" y="12" width="40" height="40" rx="8" fill="#005EB8"/>
<path fill-rule="evenodd" clip-rule="evenodd" d="M22 37.7262H52V26H22V37.7262Z" fill="white"/>
<path fill-rule="evenodd" clip-rule="evenodd" d="M25.0124 27.2155H28.3276L30.3721 33.9689H30.3998L31.8006 27.2155H34.3074L32.1965 36.9404H28.8965L26.8063 30.187H26.7787L25.3875 36.9404H22.8848L25.0137 27.2155H25.0124Z" fill="#005EB8"/>
<path fill-rule="evenodd" clip-rule="evenodd" d="M35.2928 27.2158H37.9367L37.1394 30.9977H40.3453L41.144 27.2158H43.7754L41.7046 36.9407H39.0469L39.937 32.7536H36.7643L35.8742 36.9407H33.2207L35.2915 27.2158H35.2928Z" fill="#005EB8"/>
<path fill-rule="evenodd" clip-rule="evenodd" d="M50.791 29.4082C50.2774 29.1715 49.5797 28.963 48.5956 28.963C47.5408 28.963 46.6854 29.1143 46.6854 29.8955C46.6854 31.2721 50.5501 30.7588 50.5501 33.7087C50.5501 36.3939 47.9962 37.0908 45.6873 37.0908C44.6602 37.0908 43.4767 36.8531 42.6074 36.5884L43.2344 34.6121C43.7604 34.947 44.8167 35.1696 45.6859 35.1696C46.5552 35.1696 47.8107 35.0162 47.8107 34.0145C47.8107 32.4564 43.9459 33.0409 43.9459 30.3007C43.9459 27.7938 46.1994 27.0428 48.3824 27.0428C49.6088 27.0428 50.7633 27.1682 51.4333 27.474L50.791 29.4082Z" fill="#005EB8"/>
<path d="M70.684 27H68.724V23.136L65.154 17.228H67.45L69.76 21.33L72.112 17.228H74.184L70.684 23.136V27ZM81.1027 23.444C81.1027 25.586 79.6467 27.168 77.3227 27.168C74.9987 27.168 73.5567 25.572 73.5567 23.444C73.5567 21.134 75.1247 19.622 77.3227 19.622C79.5207 19.622 81.1027 21.12 81.1027 23.444ZM77.3227 25.712C78.5407 25.712 79.1427 24.774 79.1427 23.22C79.1427 22.072 78.5267 21.078 77.3227 21.078C76.1467 21.078 75.5167 22.086 75.5167 23.22C75.5167 24.746 76.1047 25.712 77.3227 25.712ZM89.1993 27H87.4213V26.02H87.3933C86.7773 26.762 85.9653 27.168 85.0273 27.168C83.4173 27.168 82.5773 26.09 82.5773 24.34V19.79H84.4533V23.906C84.4533 25.348 84.9853 25.712 85.6713 25.712C86.8053 25.712 87.3233 24.662 87.3233 23.276V19.79H89.1993V27ZM93.0539 27H91.1779V19.79H92.8439V21.428H92.8719C92.9839 20.672 93.7679 19.622 94.8599 19.622C95.2519 19.622 95.3639 19.664 95.4199 19.678V21.568C95.2519 21.47 94.9159 21.414 94.5799 21.414C93.8799 21.414 93.0539 21.792 93.0539 24.032V27ZM106.816 25.488V22.94H104.744V21.4H108.692V26.664C107.656 26.944 106.578 27.168 105.528 27.168C102.196 27.168 100.166 25.432 100.166 22.282C100.166 19.02 102.126 17.06 105.542 17.06C106.662 17.06 107.558 17.214 108.398 17.466L108.272 19.118C107.502 18.768 106.564 18.6 105.752 18.6C103.568 18.6 102.21 20.042 102.21 22.142C102.21 24.2 103.498 25.628 105.542 25.628C106.046 25.628 106.48 25.572 106.816 25.488ZM112.537 27H110.577V17.228H113.097C115.687 17.228 117.129 18.194 117.129 20.182C117.129 22.226 115.757 23.29 113.391 23.29H112.537V27ZM112.537 21.75H113.195C114.525 21.75 115.085 21.204 115.085 20.294C115.085 19.272 114.385 18.768 113.223 18.768H112.537V21.75ZM122.253 26.79L122.435 25.026C123.135 25.404 123.905 25.628 124.647 25.628C125.361 25.628 126.383 25.264 126.383 24.368C126.383 23.626 125.725 23.304 124.759 22.926C123.457 22.422 122.099 21.876 122.099 20.042C122.099 17.942 123.681 17.06 125.529 17.06C126.355 17.06 127.139 17.172 127.853 17.41L127.671 19.02C127.013 18.74 126.341 18.6 125.683 18.6C124.955 18.6 124.143 18.936 124.143 19.958C124.143 20.7 124.983 20.98 125.795 21.302C127.111 21.792 128.427 22.394 128.427 24.214C128.427 26.104 127.083 27.168 124.745 27.168C123.737 27.168 123.191 27.028 122.253 26.79ZM136.654 27H134.876V26.02H134.848C134.232 26.762 133.42 27.168 132.482 27.168C130.872 27.168 130.032 26.09 130.032 24.34V19.79H131.908V23.906C131.908 25.348 132.44 25.712 133.126 25.712C134.26 25.712 134.778 24.662 134.778 23.276V19.79H136.654V27ZM140.509 27H138.633V19.79H140.299V21.428H140.327C140.439 20.672 141.223 19.622 142.315 19.622C142.707 19.622 142.819 19.664 142.875 19.678V21.568C142.707 21.47 142.371 21.414 142.035 21.414C141.335 21.414 140.509 21.792 140.509 24.032V27ZM148.778 26.02V25.852H148.75C148.344 26.552 147.462 27 146.51 27C144.522 27 143.57 25.488 143.57 23.36C143.57 21.624 144.466 19.622 146.622 19.622C147.574 19.622 148.316 19.944 148.834 20.77H148.862V19.79H150.654V26.328C150.654 28.764 149.394 30.108 146.874 30.108C146.146 30.108 145.278 30.01 144.354 29.618L144.508 28.022C145.166 28.372 146.062 28.652 146.622 28.652C148.386 28.652 148.778 27.518 148.778 26.02ZM147.126 25.544C148.33 25.544 148.778 24.48 148.778 23.318C148.778 22.212 148.386 21.078 147.196 21.078C146.076 21.078 145.53 22.044 145.53 23.36C145.53 24.34 146.048 25.544 147.126 25.544ZM158.373 25.068V26.594C157.687 26.972 156.903 27.168 155.909 27.168C153.515 27.168 152.129 25.796 152.129 23.43C152.129 21.414 153.179 19.622 155.475 19.622C157.925 19.622 158.905 21.134 158.905 23.976H153.921C154.005 25.11 154.775 25.796 155.993 25.796C156.889 25.796 157.673 25.46 158.373 25.068ZM153.921 22.688H157.113C157.043 21.652 156.553 20.994 155.573 20.994C154.635 20.994 154.019 21.61 153.921 22.688ZM162.288 27H160.412V19.79H162.078V21.428H162.106C162.218 20.672 163.002 19.622 164.094 19.622C164.486 19.622 164.598 19.664 164.654 19.678V21.568C164.486 21.47 164.15 21.414 163.814 21.414C163.114 21.414 162.288 21.792 162.288 24.032V27ZM165.448 29.912L165.574 28.526C165.854 28.624 166.148 28.652 166.526 28.652C167.324 28.652 167.758 28.106 167.758 27.364L165 19.79H167.072L168.808 25.054H168.836L170.572 19.79H172.476L169.452 27.798C168.906 29.226 168.29 30.108 166.75 30.108C166.33 30.108 165.882 30.038 165.448 29.912Z" fill="#212B32"/>
<path d="M69.608 47H68.408V43.496L65.132 38.624H66.536L69.032 42.38L71.468 38.624H72.872L69.608 43.496V47ZM75.492 47.144C73.692 47.144 72.384 45.716 72.384 43.94C72.384 42.068 73.632 40.736 75.504 40.736C77.292 40.736 78.612 42.008 78.612 43.94C78.612 45.656 77.376 47.144 75.492 47.144ZM75.504 46.232C76.764 46.232 77.412 45.128 77.412 43.94C77.412 42.728 76.68 41.648 75.492 41.648C74.316 41.648 73.584 42.764 73.584 43.94C73.584 45.116 74.232 46.232 75.504 46.232ZM85.54 47H84.448V46.028H84.424C84.124 46.664 83.344 47.144 82.42 47.144C80.884 47.144 80.128 46.208 80.128 44.528V40.88H81.256V44.18C81.256 46.064 82.084 46.232 82.6 46.232C83.728 46.232 84.412 45.32 84.412 43.724V40.88H85.54V47ZM96.2158 47H95.0878V43.784C95.0878 42.5 94.7998 41.648 93.7558 41.648C92.2078 41.648 91.9318 43.22 91.9318 44.132V47H90.8038V38H91.9318V41.756H91.9558C92.3758 41.096 93.0718 40.736 93.9238 40.736C95.4718 40.736 96.2158 41.684 96.2158 43.364V47ZM102.952 47H101.896V46.208H101.872C101.44 46.808 100.768 47.144 99.9637 47.144C98.5477 47.144 97.7317 46.472 97.7317 45.236C97.7317 43.94 98.9677 43.22 100.66 43.22C101.14 43.22 101.524 43.232 101.776 43.244C101.776 42.128 101.332 41.648 100.264 41.648C99.6517 41.648 98.9797 41.864 98.4877 42.272L98.4277 41.312C98.9917 40.976 99.6637 40.736 100.444 40.736C102.136 40.736 102.904 41.54 102.904 43.256V45.944C102.904 46.316 102.916 46.712 102.952 47ZM101.776 44.624V44.084C101.776 44.084 101.272 44.06 101.044 44.06C99.7717 44.06 98.9317 44.444 98.9317 45.236C98.9317 45.824 99.4717 46.232 100.084 46.232C101.14 46.232 101.776 45.572 101.776 44.624ZM107.52 47H106.176L103.98 40.88H105.216L106.872 45.872H106.896L108.588 40.88H109.716L107.52 47ZM115.5 45.62V46.748C114.612 47.108 114.084 47.144 113.58 47.144C111.504 47.144 110.4 45.944 110.4 43.832C110.4 41.984 111.564 40.736 113.268 40.736C115.044 40.736 115.968 41.864 115.968 44.192H111.6C111.612 45.416 112.548 46.232 113.616 46.232C114.264 46.232 115.116 45.92 115.5 45.62ZM111.6 43.352H114.768C114.756 42.368 114.192 41.648 113.232 41.648C112.332 41.648 111.72 42.296 111.6 43.352ZM125.627 47H124.571V46.208H124.547C124.115 46.808 123.443 47.144 122.639 47.144C121.223 47.144 120.407 46.472 120.407 45.236C120.407 43.94 121.643 43.22 123.335 43.22C123.815 43.22 124.199 43.232 124.451 43.244C124.451 42.128 124.007 41.648 122.939 41.648C122.327 41.648 121.655 41.864 121.163 42.272L121.103 41.312C121.667 40.976 122.339 40.736 123.119 40.736C124.811 40.736 125.579 41.54 125.579 43.256V45.944C125.579 46.316 125.591 46.712 125.627 47ZM124.451 44.624V44.084C124.451 44.084 123.947 44.06 123.719 44.06C122.447 44.06 121.607 44.444 121.607 45.236C121.607 45.824 122.147 46.232 122.759 46.232C123.815 46.232 124.451 45.572 124.451 44.624ZM136.235 47H135.107V43.688C135.107 42.08 134.519 41.648 133.763 41.648C132.587 41.648 131.951 42.62 131.951 44.156V47H130.823V40.88H131.915V41.852H131.939C132.311 41.132 133.091 40.736 133.943 40.736C135.479 40.736 136.235 41.672 136.235 43.34V47ZM142.851 45.62V46.748C141.963 47.108 141.435 47.144 140.931 47.144C138.855 47.144 137.751 45.944 137.751 43.832C137.751 41.984 138.915 40.736 140.619 40.736C142.395 40.736 143.319 41.864 143.319 44.192H138.951C138.963 45.416 139.899 46.232 140.967 46.232C141.615 46.232 142.467 45.92 142.851 45.62ZM138.951 43.352H142.119C142.107 42.368 141.543 41.648 140.583 41.648C139.683 41.648 139.071 42.296 138.951 43.352ZM151.751 47H150.443L148.859 41.864H148.835L147.287 47H145.979L144.011 40.88H145.247L146.651 45.944H146.675L148.235 40.88H149.567L151.103 45.944H151.127L152.615 40.88H153.719L151.751 47ZM166.935 47H165.807V43.328C165.807 42.296 165.459 41.648 164.715 41.648C163.635 41.648 163.107 42.656 163.107 43.928V47H161.979V43.328C161.979 42.332 161.655 41.648 160.887 41.648C159.819 41.648 159.279 42.644 159.279 43.916V47H158.151V40.88H159.207V41.768H159.231C159.675 41.048 160.275 40.736 161.175 40.736C161.943 40.736 162.615 41.156 162.915 41.924C163.263 41.192 164.079 40.736 164.823 40.736C166.203 40.736 166.935 41.564 166.935 43.076V47ZM173.519 45.62V46.748C172.631 47.108 172.103 47.144 171.599 47.144C169.523 47.144 168.419 45.944 168.419 43.832C168.419 41.984 169.583 40.736 171.287 40.736C173.063 40.736 173.987 41.864 173.987 44.192H169.619C169.631 45.416 170.567 46.232 171.635 46.232C172.283 46.232 173.135 45.92 173.519 45.62ZM169.619 43.352H172.787C172.775 42.368 172.211 41.648 171.251 41.648C170.351 41.648 169.739 42.296 169.619 43.352ZM174.979 46.808L175.039 45.8C175.423 46.052 176.059 46.232 176.443 46.232C177.043 46.232 177.595 45.968 177.595 45.356C177.595 45.02 177.379 44.72 176.491 44.324C175.231 43.76 174.943 43.232 174.943 42.608C174.943 41.336 175.915 40.736 177.103 40.736C177.631 40.736 178.063 40.844 178.507 40.976L178.411 41.96C178.183 41.816 177.511 41.648 177.223 41.648C176.611 41.648 176.143 41.912 176.143 42.392C176.143 42.896 176.563 43.148 177.331 43.484C178.375 43.94 178.795 44.42 178.795 45.236C178.795 46.4 177.931 47.144 176.647 47.144C175.999 47.144 175.447 47.06 174.979 46.808ZM179.643 46.808L179.703 45.8C180.087 46.052 180.723 46.232 181.107 46.232C181.707 46.232 182.259 45.968 182.259 45.356C182.259 45.02 182.043 44.72 181.155 44.324C179.895 43.76 179.607 43.232 179.607 42.608C179.607 41.336 180.579 40.736 181.767 40.736C182.295 40.736 182.727 40.844 183.171 40.976L183.075 41.96C182.847 41.816 182.175 41.648 181.887 41.648C181.275 41.648 180.807 41.912 180.807 42.392C180.807 42.896 181.227 43.148 181.995 43.484C183.039 43.94 183.459 44.42 183.459 45.236C183.459 46.4 182.595 47.144 181.311 47.144C180.663 47.144 180.111 47.06 179.643 46.808ZM189.635 47H188.579V46.208H188.555C188.123 46.808 187.451 47.144 186.647 47.144C185.231 47.144 184.415 46.472 184.415 45.236C184.415 43.94 185.651 43.22 187.343 43.22C187.823 43.22 188.207 43.232 188.459 43.244C188.459 42.128 188.015 41.648 186.947 41.648C186.335 41.648 185.663 41.864 185.171 42.272L185.111 41.312C185.675 40.976 186.347 40.736 187.127 40.736C188.819 40.736 189.587 41.54 189.587 43.256V45.944C189.587 46.316 189.599 46.712 189.635 47ZM188.459 44.624V44.084C188.459 44.084 187.955 44.06 187.727 44.06C186.455 44.06 185.615 44.444 185.615 45.236C185.615 45.824 186.155 46.232 186.767 46.232C187.823 46.232 188.459 45.572 188.459 44.624ZM195.775 46.652V46.052H195.751C195.271 46.676 194.503 47 193.699 47C191.947 47 191.083 45.572 191.083 43.988C191.083 42.32 192.043 40.736 193.819 40.736C194.779 40.736 195.463 41.048 195.835 41.792H195.859V40.88H196.903V46.748C196.903 48.62 195.907 49.664 193.747 49.664C192.967 49.664 192.415 49.532 191.551 49.244L191.671 48.2C192.595 48.632 193.123 48.752 193.867 48.752C195.067 48.752 195.775 47.948 195.775 46.652ZM193.987 46.088C194.983 46.088 195.775 45.224 195.775 44C195.775 42.728 195.175 41.648 193.987 41.648C192.883 41.648 192.283 42.812 192.283 43.928C192.283 45.128 192.967 46.088 193.987 46.088ZM203.519 45.62V46.748C202.631 47.108 202.103 47.144 201.599 47.144C199.523 47.144 198.419 45.944 198.419 43.832C198.419 41.984 199.583 40.736 201.287 40.736C203.063 40.736 203.987 41.864 203.987 44.192H199.619C199.631 45.416 200.567 46.232 201.635 46.232C202.283 46.232 203.135 45.92 203.519 45.62ZM199.619 43.352H202.787C202.775 42.368 202.211 41.648 201.251 41.648C200.351 41.648 199.739 42.296 199.619 43.352Z" fill="#212B32"/>
<defs>
<filter id="filter0_d_8401_29293" x="0" y="0" width="286" height="70" filterUnits="userSpaceOnUse" color-interpolation-filters="sRGB">
<feFlood flood-opacity="0" result="BackgroundImageFix"/>
<feColorMatrix in="SourceAlpha" type="matrix" values="0 0 0 0 0 0 0 0 0 0 0 0 0 0 0 0 0 0 127 0" result="hardAlpha"/>
<feOffset dy="3"/>
<feGaussianBlur stdDeviation="1.5"/>
<feComposite in2="hardAlpha" operator="out"/>
<feColorMatrix type="matrix" values="0 0 0 0 0 0 0 0 0 0 0 0 0 0 0 0 0 0 0.25 0"/>
<feBlend mode="normal" in2="BackgroundImageFix" result="effect1_dropShadow_8401_29293"/>
<feBlend mode="normal" in="SourceGraphic" in2="effect1_dropShadow_8401_29293" result="shape"/>
</filter>
</defs>
</svg>
