<svg width="166" height="117" viewBox="0 0 166 117" fill="none" xmlns="http://www.w3.org/2000/svg">
<mask id="mask0_791_13829" style="mask-type:luminance" maskUnits="userSpaceOnUse" x="2" y="0" width="162" height="117">
<path d="M163.999 0H2V116.885H163.999V0Z" fill="white"/>
</mask>
<g mask="url(#mask0_791_13829)">
<path d="M53.0845 0H113.312C125.694 0 135.55 10.8912 135.55 24.3983V116.885H30.4541V24.3983C30.4541 10.8912 40.7032 0 53.0845 0Z" fill="#212B32"/>
<path d="M38.5832 26.668H127.421C127.961 26.668 128.583 27.1964 128.583 27.8028V116.885H37.4219V27.8028C37.4219 27.1964 38.0435 26.668 38.5832 26.668Z" fill="#005EB8"/>
</g>
<g filter="url(#filter0_d_791_13829)">
<path d="M156.664 51.0664H9.33677C5.28533 51.0664 2.00098 54.7031 2.00098 59.1892V81.527C2.00098 86.0131 5.28533 89.6498 9.33677 89.6498H156.664C160.715 89.6498 164 86.0131 164 81.527V59.1892C164 54.7031 160.715 51.0664 156.664 51.0664Z" fill="white"/>
</g>
<path d="M30.0398 59.0098H13.4498C11.6174 59.0098 10.1318 60.4614 10.1318 62.2521V78.4636C10.1318 80.254 11.6174 81.7059 13.4498 81.7059H30.0398C31.8723 81.7059 33.3578 80.254 33.3578 78.4636V62.2521C33.3578 60.4614 31.8723 59.0098 30.0398 59.0098Z" fill="#005EB8"/>
<path fill-rule="evenodd" clip-rule="evenodd" d="M13.0352 73.762H30.4546V66.9531H13.0352V73.762Z" fill="white"/>
<path fill-rule="evenodd" clip-rule="evenodd" d="M14.7842 67.6587H16.7092L17.8964 71.58H17.9124L18.7258 67.6587H20.1814L18.9557 73.3054H17.0396L15.8259 69.3841H15.8098L15.002 73.3054H13.5488L14.785 67.6587H14.7842Z" fill="#005EB8"/>
<path fill-rule="evenodd" clip-rule="evenodd" d="M20.754 67.6587H22.2891L21.8262 69.8546H23.6877L24.1515 67.6587H25.6794L24.4769 73.3054H22.9337L23.4506 70.8742H21.6084L21.0915 73.3054H19.5508L20.7532 67.6587H20.754Z" fill="#005EB8"/>
<path fill-rule="evenodd" clip-rule="evenodd" d="M29.7528 68.932C29.4545 68.7946 29.0494 68.6735 28.478 68.6735C27.8655 68.6735 27.3688 68.7614 27.3688 69.215C27.3688 70.0143 29.6129 69.7163 29.6129 71.4291C29.6129 72.9883 28.1299 73.3929 26.7893 73.3929C26.1929 73.3929 25.5057 73.2549 25.001 73.1012L25.365 71.9536C25.6705 72.1481 26.2838 72.2774 26.7885 72.2774C27.2933 72.2774 28.0222 72.1883 28.0222 71.6067C28.0222 70.702 25.7782 71.0414 25.7782 69.4503C25.7782 67.9947 27.0867 67.5586 28.3542 67.5586C29.0663 67.5586 29.7367 67.6314 30.1257 67.8089L29.7528 68.932Z" fill="#005EB8"/>
<defs>
<filter id="filter0_d_791_13829" x="0.119673" y="50.6309" width="165.762" height="42.3461" filterUnits="userSpaceOnUse" color-interpolation-filters="sRGB">
<feFlood flood-opacity="0" result="BackgroundImageFix"/>
<feColorMatrix in="SourceAlpha" type="matrix" values="0 0 0 0 0 0 0 0 0 0 0 0 0 0 0 0 0 0 127 0" result="hardAlpha"/>
<feOffset dy="1.44582"/>
<feGaussianBlur stdDeviation="0.940652"/>
<feColorMatrix type="matrix" values="0 0 0 0 0 0 0 0 0 0 0 0 0 0 0 0 0 0 0.3 0"/>
<feBlend mode="normal" in2="BackgroundImageFix" result="effect1_dropShadow_791_13829"/>
<feBlend mode="normal" in="SourceGraphic" in2="effect1_dropShadow_791_13829" result="shape"/>
</filter>
</defs>
</svg>
