<svg width="27" height="29" viewBox="0 0 27 29" fill="none" xmlns="http://www.w3.org/2000/svg">
<path d="M0.898438 21.6484C0.898438 21.1927 1.0306 20.7507 1.29492 20.3223C1.55924 19.8939 1.88737 19.4746 2.2793 19.0645C2.68034 18.6543 3.07682 18.2441 3.46875 17.834C3.76953 17.5241 4.00195 17.1185 4.16602 16.6172C4.33919 16.1159 4.4668 15.5827 4.54883 15.0176C4.63086 14.4525 4.6901 13.9056 4.72656 13.377C4.75391 11.5814 4.94076 10.0046 5.28711 8.64648C5.63346 7.2793 6.17578 6.13997 6.91406 5.22852C7.66146 4.31706 8.64128 3.64258 9.85352 3.20508C10.0814 2.31185 10.5417 1.55534 11.2344 0.935547C11.9362 0.315755 12.7884 0.00585938 13.791 0.00585938C14.8027 0.00585938 15.6549 0.315755 16.3477 0.935547C17.0495 1.55534 17.5143 2.31185 17.7422 3.20508C18.9544 3.64258 19.9297 4.31706 20.668 5.22852C21.4062 6.13997 21.9486 7.2793 22.2949 8.64648C22.6504 10.0046 22.8418 11.5814 22.8691 13.377C22.9056 13.9056 22.9648 14.4525 23.0469 15.0176C23.1289 15.5827 23.252 16.1159 23.416 16.6172C23.5892 17.1185 23.8262 17.5241 24.127 17.834C24.5189 18.2441 24.9108 18.6543 25.3027 19.0645C25.7038 19.4746 26.0365 19.8939 26.3008 20.3223C26.5651 20.7507 26.6973 21.1927 26.6973 21.6484C26.6973 22.1497 26.515 22.5508 26.1504 22.8516C25.7858 23.1523 25.2799 23.3027 24.6328 23.3027H18.8633C18.8268 24.1868 18.5853 25.0026 18.1387 25.75C17.7012 26.5065 17.1087 27.1126 16.3613 27.5684C15.6139 28.0241 14.7572 28.252 13.791 28.252C12.834 28.252 11.9818 28.0195 11.2344 27.5547C10.487 27.099 9.88997 26.4974 9.44336 25.75C9.00586 25.0026 8.76888 24.1868 8.73242 23.3027H2.96289C2.31576 23.3027 1.8099 23.1523 1.44531 22.8516C1.08073 22.5508 0.898438 22.1497 0.898438 21.6484ZM3.55078 21.2383H24.0312V21.0742C23.9492 20.9466 23.8125 20.778 23.6211 20.5684C23.4388 20.3496 23.2246 20.1126 22.9785 19.8574C22.7415 19.6022 22.5 19.3424 22.2539 19.0781C22.0078 18.8047 21.7936 18.4902 21.6113 18.1348C21.429 17.7702 21.2741 17.36 21.1465 16.9043C21.028 16.4486 20.9277 15.9427 20.8457 15.3867C20.7728 14.8307 20.7227 14.2201 20.6953 13.5547C20.6589 11.5677 20.4492 9.99089 20.0664 8.82422C19.6927 7.65755 19.1914 6.79167 18.5625 6.22656C17.9427 5.65234 17.2409 5.25586 16.457 5.03711C16.293 5.00065 16.1608 4.93685 16.0605 4.8457C15.9694 4.74544 15.9238 4.60872 15.9238 4.43555C15.8965 3.72461 15.6914 3.14583 15.3086 2.69922C14.9349 2.24349 14.429 2.01562 13.791 2.01562C13.1621 2.01562 12.6562 2.24349 12.2734 2.69922C11.8997 3.14583 11.6992 3.72461 11.6719 4.43555C11.6628 4.60872 11.6126 4.74544 11.5215 4.8457C11.4303 4.93685 11.2982 5.00065 11.125 5.03711C10.3411 5.25586 9.63477 5.65234 9.00586 6.22656C8.38607 6.79167 7.88932 7.65755 7.51562 8.82422C7.14193 9.99089 6.93685 11.5677 6.90039 13.5547C6.86393 14.2201 6.80924 14.8307 6.73633 15.3867C6.66341 15.9427 6.56315 16.4486 6.43555 16.9043C6.30794 17.36 6.15299 17.7702 5.9707 18.1348C5.78841 18.4902 5.57422 18.8047 5.32812 19.0781C5.09115 19.3424 4.84961 19.6022 4.60352 19.8574C4.36654 20.1126 4.15234 20.3496 3.96094 20.5684C3.76953 20.778 3.63281 20.9466 3.55078 21.0742V21.2383ZM10.8652 23.3027C10.9108 24.2324 11.2025 24.9661 11.7402 25.5039C12.2871 26.0508 12.9707 26.3242 13.791 26.3242C14.6204 26.3242 15.304 26.0508 15.8418 25.5039C16.3796 24.9661 16.6758 24.2324 16.7305 23.3027H10.8652Z" fill="white"/>
</svg>
