<svg width="24" height="24" viewBox="0 0 24 24" fill="none" xmlns="http://www.w3.org/2000/svg">
<path d="M12.375 2C13.5486 2 14.5 2.9514 14.5 4.125C16.1016 4.125 17.4004 5.42376 17.4004 7.02539V9.5127L17.4082 9.88867C17.4913 11.7637 18.1944 13.5625 19.4121 15L20.4404 16.2148C20.8015 16.6412 20.9999 17.1816 21 17.7402C21 18.4358 20.4358 19 19.7402 19H15.25C15.25 20.7949 13.7949 22.25 12 22.25C10.2051 22.25 8.75 20.7949 8.75 19H4.25977L4.13086 18.9932C3.49571 18.9288 3 18.3924 3 17.7402C3.00009 17.2514 3.15188 16.7766 3.43164 16.3799L3.55957 16.2148L4.58789 15C5.80557 13.5625 6.50868 11.7637 6.5918 9.88867L6.59961 9.5127V7.02539C6.59961 5.42376 7.89837 4.125 9.5 4.125C9.5 2.9514 10.4514 2 11.625 2H12.375ZM10.25 19C10.25 19.9665 11.0335 20.75 12 20.75C12.9665 20.75 13.75 19.9665 13.75 19H10.25ZM11.625 3.40039C11.2246 3.40039 10.9004 3.72459 10.9004 4.125V5.52539H9.5C8.67157 5.52539 8 6.19696 8 7.02539V9.5127C7.99995 11.8536 7.1693 14.119 5.65625 15.9053L4.62793 17.1191C4.51162 17.2564 4.43929 17.4235 4.41309 17.5996H19.5869C19.5607 17.4235 19.4884 17.2564 19.3721 17.1191L18.3438 15.9053C16.8307 14.119 16.0001 11.8536 16 9.5127V7.02539C16 6.19696 15.3284 5.52539 14.5 5.52539H13.0996V4.125C13.0996 3.72459 12.7754 3.40039 12.375 3.40039H11.625Z" fill="white"/>
</svg>
